<?xml version="1.0" encoding="utf-8"?>
<!-- Generator: Adobe Illustrator 24.0.3, SVG Export Plug-In . SVG Version: 6.00 Build 0)  -->
<svg version="1.1" id="圖層_1" xmlns="http://www.w3.org/2000/svg" xmlns:xlink="http://www.w3.org/1999/xlink" x="0px" y="0px"
	 viewBox="0 0 228.7 39.1" style="enable-background:new 0 0 228.7 39.1;" xml:space="preserve">
<style type="text/css">
	.st0{fill:#555555;}
</style>
<g>
	<path class="st0" d="M73.4,5.2L74,3.5H42l-0.9,2.7h9.4l-9.2,27.7l-0.6,1.7h32l0.9-2.7h-9.5L73.4,5.2z M50.6,32.9h-6.1l6.1-20V32.9z
		 M53.4,6.1h7l-7,19.5V6.1z M60.5,32.9h-6.1l6.1-20V32.9z M63.2,6.1h7l-7,19.5C63.2,25.6,63.2,6.1,63.2,6.1z"/>
	<path class="st0" d="M149.6,35.6H146l-7.3-26.7l-7.3,26.7h-3.6L121,10.8h3.3l5.3,19.8L137,3.5h3.5l7.3,27.2l7.3-27.2h3.4
		L149.6,35.6z"/>
	<polygon class="st0" points="103.8,3.5 92.1,31.9 80.3,3.5 75.6,3.5 75.6,35.4 79,25 79,8.7 90.2,35.6 93.9,35.6 105.1,8.7 
		105.1,35.6 108.5,35.6 108.5,3.5 	"/>
	<path class="st0" d="M114.9,20.8c-2.7,2.5-4.7,4.7-6.1,6.8c-1.7,2.5-2.9,5.2-3.6,8.1H121l1-3.1h-12.2c0.8-2.5,3.2-5.7,7.3-9.4
		c2.4-2.2,4.1-4.1,5.2-5.5c1.5-2,2.2-4.1,2.2-6.1c0-2.5-0.9-4.5-2.7-6c-1.8-1.4-4.2-2.1-7.2-2.1c-2.8,0-5,0.9-6.6,2.6
		c-1.7,1.7-2.7,4.1-3,7l3.2,1.3c0.3-5.1,2.5-7.6,6.4-7.6c2.1,0,3.8,0.5,4.9,1.5c1,0.9,1.5,2,1.5,3.4c0,1.5-0.5,2.9-1.5,4.3
		C118.8,17,117.2,18.6,114.9,20.8z"/>
	<polygon class="st0" points="184.5,25.3 187.9,35.6 187.9,3.5 183.2,3.5 171.5,31.9 159.7,3.5 155,3.5 155,35.6 158.4,35.6 
		158.4,8.7 169.6,35.6 173.3,35.6 184.5,8.7 	"/>
	<polygon class="st0" points="118.3,10.7 116.4,8.9 114.7,10.5 113.1,8.9 111.2,10.7 112.8,12.4 111.2,14.1 113.1,16 114.7,14.3 
		116.4,16 118.3,14.1 116.6,12.4 	"/>
</g>
</svg>
